<!DOCTYPE svg PUBLIC "-//W3C//DTD SVG 20010904//EN" "http://www.w3.org/TR/2001/REC-SVG-20010904/DTD/svg10.dtd">
<svg version="1.0" xmlns="http://www.w3.org/2000/svg" width="79px" height="84px" viewBox="0 0 790 840" preserveAspectRatio="xMidYMid meet">
<g id="layer101" fill="#666d79" stroke="none">
 <path d="M12 828 c-9 -9 -12 -76 -12 -239 l0 -227 42 -36 c23 -20 45 -36 50 -36 4 0 8 -65 8 -145 l0 -145 295 0 295 0 0 145 c0 140 1 145 23 156 12 6 34 23 50 37 l27 26 0 226 c0 162 -3 229 -12 238 -17 17 -749 17 -766 0z"/>
 </g>
<g id="layer102" fill="#e44e36" stroke="none">
 <path d="M12 828 c-9 -9 -12 -76 -12 -239 l0 -227 42 -36 c23 -20 45 -36 50 -36 4 0 8 -65 8 -145 l0 -145 295 0 295 0 0 145 c0 140 1 145 23 156 12 6 34 23 50 37 l27 26 0 226 c0 162 -3 229 -12 238 -17 17 -749 17 -766 0z m453 -348 c-3 -5 -35 -10 -70 -10 -35 0 -67 5 -70 10 -4 6 22 10 70 10 48 0 74 -4 70 -10z m55 -50 c0 -6 -48 -10 -125 -10 -77 0 -125 4 -125 10 0 6 48 10 125 10 77 0 125 -4 125 -10z"/>
 </g>
<g id="layer103" fill="#f0b643" stroke="none">
 <path d="M12 828 c-9 -9 -12 -76 -12 -239 l0 -227 42 -36 c23 -20 45 -36 50 -36 4 0 8 -65 8 -145 l0 -145 295 0 295 0 0 145 c0 140 1 145 23 156 12 6 34 23 50 37 l27 26 0 226 c0 162 -3 229 -12 238 -17 17 -749 17 -766 0z m453 -348 c-3 -5 -35 -10 -70 -10 -35 0 -67 5 -70 10 -4 6 22 10 70 10 48 0 74 -4 70 -10z m55 -50 c0 -6 -48 -10 -125 -10 -77 0 -125 4 -125 10 0 6 48 10 125 10 77 0 125 -4 125 -10z m-61 -124 c36 -39 51 -63 51 -82 0 -51 -66 -94 -96 -64 -7 7 -19 8 -37 1 -47 -18 -97 15 -97 65 0 19 98 131 116 133 6 0 34 -23 63 -53z"/>
 </g>
<g id="layer104" fill="#9da3ab" stroke="none">
 <path d="M11 826 c-8 -9 -11 -79 -9 -230 l3 -217 42 35 c22 20 44 36 47 36 3 0 6 -101 6 -225 l0 -225 295 0 295 0 0 225 c0 124 4 225 8 225 4 0 13 -5 20 -12 6 -6 14 -9 17 -6 3 3 4 80 3 172 l-3 166 -110 -78 c-137 -97 -133 -94 -145 -87 -6 4 56 54 137 111 82 58 149 109 151 114 2 6 -135 10 -371 10 -306 0 -377 -3 -386 -14z m162 -110 c81 -58 143 -107 137 -111 -12 -8 -7 -10 -168 103 -118 83 -150 112 -124 112 5 0 74 -47 155 -104z m292 -236 c-3 -5 -35 -10 -70 -10 -35 0 -67 5 -70 10 -4 6 22 10 70 10 48 0 74 -4 70 -10z m55 -50 c0 -6 -48 -10 -125 -10 -77 0 -125 4 -125 10 0 6 48 10 125 10 77 0 125 -4 125 -10z m-61 -124 c36 -39 51 -63 51 -82 0 -51 -66 -94 -96 -64 -7 7 -19 8 -37 1 -47 -18 -97 15 -97 65 0 19 98 131 116 133 6 0 34 -23 63 -53z"/>
 </g>
<g id="layer105" fill="#ffce53" stroke="none">
 <path d="M11 826 c-8 -9 -11 -79 -9 -230 l3 -217 42 35 c22 20 44 36 47 36 3 0 6 -101 6 -225 l0 -225 295 0 295 0 0 225 c0 124 4 225 8 225 4 0 13 -5 20 -12 6 -6 14 -9 17 -6 3 3 4 80 3 172 l-3 166 -110 -78 c-137 -97 -133 -94 -145 -87 -6 4 56 54 137 111 82 58 149 109 151 114 2 6 -135 10 -371 10 -306 0 -377 -3 -386 -14z m162 -110 c81 -58 143 -107 137 -111 -12 -8 -7 -10 -168 103 -118 83 -150 112 -124 112 5 0 74 -47 155 -104z m297 -231 c0 -12 -15 -15 -75 -15 -60 0 -75 3 -75 15 0 12 15 15 75 15 60 0 75 -3 75 -15z m50 -50 c0 -13 -21 -15 -125 -15 -104 0 -125 2 -125 15 0 13 21 15 125 15 104 0 125 -2 125 -15z m-61 -129 c36 -39 51 -63 51 -82 0 -51 -66 -94 -96 -64 -7 7 -19 8 -37 1 -47 -18 -97 15 -97 65 0 19 98 131 116 133 6 0 34 -23 63 -53z"/>
 </g>
<g id="layer106" fill="#f2c5be" stroke="none">
 <path d="M213 533 l-108 -78 -3 -228 -2 -227 295 0 295 0 0 228 0 228 -102 70 c-57 39 -108 73 -114 77 -6 3 -26 -5 -44 -18 -32 -24 -33 -24 -59 -6 -14 10 -31 21 -38 24 -6 4 -60 -28 -120 -70z m257 -48 c0 -12 -15 -15 -75 -15 -60 0 -75 3 -75 15 0 12 15 15 75 15 60 0 75 -3 75 -15z m50 -50 c0 -13 -21 -15 -125 -15 -104 0 -125 2 -125 15 0 13 21 15 125 15 104 0 125 -2 125 -15z m-61 -129 c36 -39 51 -63 51 -82 0 -51 -66 -94 -96 -64 -7 7 -19 8 -37 1 -47 -18 -97 15 -97 65 0 19 98 131 116 133 6 0 34 -23 63 -53z"/>
 </g>
<g id="layer107" fill="#f0f2f5" stroke="none">
 <path d="M220 535 l-105 -74 -6 -98 c-4 -54 -7 -158 -8 -230 l-1 -133 295 0 295 0 0 103 c0 56 -3 160 -7 230 l-6 128 -106 74 -106 73 -32 -24 c-39 -29 -37 -29 -76 0 l-32 25 -105 -74z m250 -50 c0 -12 -15 -15 -75 -15 -60 0 -75 3 -75 15 0 12 15 15 75 15 60 0 75 -3 75 -15z m50 -50 c0 -13 -21 -15 -125 -15 -104 0 -125 2 -125 15 0 13 21 15 125 15 104 0 125 -2 125 -15z m-61 -129 c57 -62 65 -95 29 -133 -22 -23 -72 -31 -83 -13 -4 6 -15 6 -32 -1 -53 -20 -93 11 -93 72 0 22 96 129 115 129 7 0 35 -24 64 -54z"/>
 </g>

</svg>