<!DOCTYPE svg PUBLIC "-//W3C//DTD SVG 20010904//EN" "http://www.w3.org/TR/2001/REC-SVG-20010904/DTD/svg10.dtd">
<svg version="1.0" xmlns="http://www.w3.org/2000/svg" width="79px" height="84px" viewBox="0 0 790 840" preserveAspectRatio="xMidYMid meet">
<g id="layer101" fill="#f2f4f6" stroke="none">
 <path d="M12 828 c-9 -9 -12 -76 -12 -239 l0 -227 42 -36 c23 -20 45 -36 50 -36 4 0 8 -65 8 -145 l0 -145 295 0 295 0 0 145 c0 140 1 145 23 156 12 6 34 23 50 37 l27 26 0 226 c0 162 -3 229 -12 238 -17 17 -749 17 -766 0z"/>
 </g>
<g id="layer102" fill="#ffce53" stroke="none">
 <path d="M12 828 c-9 -9 -12 -76 -12 -239 l0 -227 42 -36 c62 -54 68 -50 69 47 0 93 -11 78 135 180 l80 56 30 -24 c36 -30 42 -30 78 0 l30 24 89 -62 89 -62 -4 -242 -3 -243 28 0 27 0 0 145 c0 140 1 145 23 156 12 6 34 23 50 37 l27 26 0 226 c0 162 -3 229 -12 238 -17 17 -749 17 -766 0z"/>
 <path d="M315 490 c-3 -5 0 -13 8 -16 23 -9 152 0 152 11 0 14 -151 19 -160 5z"/>
 <path d="M265 440 c-3 -5 0 -13 7 -15 25 -10 253 -1 251 10 -4 14 -249 19 -258 5z"/>
 <path d="M331 306 c-28 -30 -51 -64 -51 -75 0 -61 40 -92 93 -72 17 7 28 7 32 1 11 -17 64 -11 85 10 34 34 26 72 -31 134 -28 31 -57 56 -64 56 -6 0 -35 -24 -64 -54z"/>
 </g>
<g id="layer103" fill="#f6ba42" stroke="none">
 <path d="M4 819 c-4 -6 -1 -15 7 -20 8 -4 77 -53 154 -107 85 -61 143 -96 147 -89 3 6 -25 32 -65 62 -204 145 -236 165 -243 154z"/>
 <path d="M623 721 c-90 -64 -149 -112 -145 -118 4 -7 54 23 132 77 l125 89 3 -166 c1 -91 0 -168 -2 -170 -3 -3 -25 9 -50 27 l-46 31 0 -208 c0 -114 -3 -225 -6 -246 -6 -36 -6 -37 25 -37 l31 0 0 145 c0 140 1 145 23 156 12 6 34 23 50 37 l27 26 0 227 c0 125 -3 230 -8 232 -4 3 -75 -43 -159 -102z"/>
 <path d="M315 490 c-3 -5 0 -13 8 -16 23 -9 152 0 152 11 0 14 -151 19 -160 5z"/>
 <path d="M51 419 c-28 -22 -51 -44 -51 -49 0 -13 82 -80 97 -80 10 0 13 21 13 85 0 47 -2 85 -4 85 -2 0 -26 -18 -55 -41z"/>
 <path d="M265 440 c-3 -5 0 -13 7 -15 25 -10 253 -1 251 10 -4 14 -249 19 -258 5z"/>
 <path d="M331 306 c-28 -30 -51 -64 -51 -75 0 -61 40 -92 93 -72 17 7 28 7 32 1 11 -17 64 -11 85 10 34 34 26 72 -31 134 -28 31 -57 56 -64 56 -6 0 -35 -24 -64 -54z"/>
 </g>
<g id="layer104" fill="#dadde0" stroke="none">
 <path d="M315 490 c-3 -5 0 -13 8 -16 23 -9 152 0 152 11 0 14 -151 19 -160 5z"/>
 <path d="M640 283 c0 -114 -3 -225 -6 -246 -6 -36 -6 -37 25 -37 l31 0 0 145 0 145 25 12 c24 11 26 16 23 66 -3 51 -5 55 -50 89 l-48 35 0 -209z"/>
 <path d="M78 437 c-24 -20 -28 -30 -28 -75 0 -40 4 -52 15 -52 8 0 15 -4 15 -10 0 -5 7 -10 15 -10 12 0 15 16 15 85 0 47 -1 85 -2 85 -2 -1 -15 -11 -30 -23z"/>
 <path d="M265 440 c-3 -5 0 -13 7 -15 25 -10 253 -1 251 10 -4 14 -249 19 -258 5z"/>
 <path d="M331 306 c-28 -30 -51 -64 -51 -75 0 -61 40 -92 93 -72 17 7 28 7 32 1 11 -17 64 -11 85 10 34 34 26 72 -31 134 -28 31 -57 56 -64 56 -6 0 -35 -24 -64 -54z"/>
 </g>
<g id="layer105" fill="#eb5238" stroke="none">
 <path d="M320 485 c0 -12 15 -15 75 -15 60 0 75 3 75 15 0 12 -15 15 -75 15 -60 0 -75 -3 -75 -15z"/>
 <path d="M678 379 c2 -49 5 -89 7 -89 2 0 16 5 30 12 22 10 25 17 25 63 0 48 -3 55 -32 77 l-33 25 3 -88z"/>
 <path d="M78 437 c-24 -20 -28 -30 -28 -75 0 -40 4 -52 15 -52 8 0 15 -4 15 -10 0 -5 7 -10 15 -10 12 0 15 16 15 85 0 47 -1 85 -2 85 -2 -1 -15 -11 -30 -23z"/>
 <path d="M277 444 c-19 -20 3 -24 119 -24 96 0 125 3 122 13 -5 13 -228 23 -241 11z"/>
 <path d="M331 306 c-28 -30 -51 -64 -51 -75 0 -61 40 -92 93 -72 17 7 28 7 32 1 11 -17 64 -11 85 10 34 34 26 72 -31 134 -28 31 -57 56 -64 56 -6 0 -35 -24 -64 -54z"/>
 </g>
<g id="layer106" fill="#d64631" stroke="none">
 <path d="M320 485 c0 -12 15 -15 75 -15 60 0 75 3 75 15 0 12 -15 15 -75 15 -60 0 -75 -3 -75 -15z"/>
 <path d="M678 379 c2 -49 5 -89 7 -89 2 0 16 5 30 12 22 10 25 17 25 63 0 48 -3 55 -32 77 l-33 25 3 -88z"/>
 <path d="M78 437 c-24 -20 -28 -30 -28 -75 0 -40 4 -52 15 -52 8 0 15 -4 15 -10 0 -5 7 -10 15 -10 12 0 15 16 15 85 0 47 -1 85 -2 85 -2 -1 -15 -11 -30 -23z"/>
 <path d="M277 444 c-19 -20 3 -24 119 -24 96 0 125 3 122 13 -5 13 -228 23 -241 11z"/>
 <path d="M335 308 c-42 -44 -43 -46 -7 -13 l42 39 40 -39 c48 -47 58 -76 37 -109 -26 -39 8 -51 43 -16 34 34 26 72 -31 134 -28 31 -56 56 -63 56 -6 0 -34 -24 -61 -52z"/>
 </g>
<g id="layer107" fill="#dca746" stroke="none">
 <path d="M320 485 c0 -12 15 -15 75 -15 60 0 75 3 75 15 0 12 -15 15 -75 15 -60 0 -75 -3 -75 -15z"/>
 <path d="M678 379 c2 -49 5 -89 7 -89 2 0 16 5 30 12 22 10 25 17 25 63 0 48 -3 55 -32 77 l-33 25 3 -88z"/>
 <path d="M78 437 c-24 -20 -28 -30 -28 -75 0 -40 4 -52 15 -52 8 0 15 -4 15 -10 0 -5 7 -10 15 -10 12 0 15 16 15 85 0 47 -1 85 -2 85 -2 -1 -15 -11 -30 -23z"/>
 <path d="M277 444 c-19 -20 3 -24 119 -24 96 0 125 3 122 13 -5 13 -228 23 -241 11z"/>
 <path d="M330 305 c-24 -25 -42 -45 -39 -45 3 0 25 20 49 45 24 25 42 45 39 45 -3 0 -25 -20 -49 -45z"/>
 </g>
<g id="layer108" fill="#666d79" stroke="none">
 <path d="M320 485 c0 -12 15 -15 75 -15 60 0 75 3 75 15 0 12 -15 15 -75 15 -60 0 -75 -3 -75 -15z"/>
 <path d="M680 377 l5 -92 3 84 c2 46 -1 88 -5 92 -4 5 -6 -33 -3 -84z"/>
 <path d="M104 375 c0 -49 1 -71 3 -48 2 23 2 64 0 90 -2 26 -3 8 -3 -42z"/>
 <path d="M277 444 c-19 -20 3 -24 119 -24 96 0 125 3 122 13 -5 13 -228 23 -241 11z"/>
 <path d="M330 305 c-24 -25 -42 -45 -39 -45 3 0 25 20 49 45 24 25 42 45 39 45 -3 0 -25 -20 -49 -45z"/>
 </g>
<g id="layer109" fill="#f0bcb4" stroke="none">
 <path d="M358 493 c23 -2 59 -2 80 0 20 2 1 4 -43 4 -44 0 -61 -2 -37 -4z"/>
 <path d="M680 377 l5 -92 3 84 c2 46 -1 88 -5 92 -4 5 -6 -33 -3 -84z"/>
 <path d="M104 375 c0 -49 1 -71 3 -48 2 23 2 64 0 90 -2 26 -3 8 -3 -42z"/>
 <path d="M330 305 c-24 -25 -42 -45 -39 -45 3 0 25 20 49 45 24 25 42 45 39 45 -3 0 -25 -20 -49 -45z"/>
 </g>
<g id="layer110" fill="#9197a0" stroke="none">
 <path d="M358 493 c23 -2 59 -2 80 0 20 2 1 4 -43 4 -44 0 -61 -2 -37 -4z"/>
 </g>
<g id="layer111" fill="#f2d4d1" stroke="none">
 </g>

</svg>