<!DOCTYPE svg PUBLIC "-//W3C//DTD SVG 20010904//EN" "http://www.w3.org/TR/2001/REC-SVG-20010904/DTD/svg10.dtd">
<svg version="1.0" xmlns="http://www.w3.org/2000/svg" width="162px" height="41px" viewBox="0 0 1620 410" preserveAspectRatio="xMidYMid meet">
<g id="layer101" fill="#0080b6" stroke="none">
 <path d="M35 398 c-9 -28 -35 -182 -35 -212 0 -18 7 -41 15 -52 8 -10 15 -36 15 -56 0 -46 18 -57 107 -68 70 -9 198 3 219 21 8 6 14 24 14 40 0 16 9 46 21 68 21 42 20 57 -17 244 l-6 27 -164 0 c-123 0 -166 -3 -169 -12z"/>
 <path d="M555 316 c-61 -27 -75 -118 -26 -167 46 -45 123 -36 152 18 49 91 -35 190 -126 149z m87 -43 c24 -22 24 -77 -2 -103 -25 -25 -51 -25 -81 -1 -26 21 -32 79 -10 105 17 21 69 20 93 -1z"/>
 <path d="M754 320 c-43 -17 -54 -89 -21 -134 13 -18 21 -19 105 -16 l32 1 0 75 c0 70 -1 74 -22 72 -13 0 -34 2 -48 5 -14 3 -34 2 -46 -3z m64 -36 c12 -8 22 -26 22 -39 0 -21 -32 -55 -52 -55 -15 0 -38 33 -38 55 0 22 23 55 38 55 4 0 18 -7 30 -16z"/>
 <path d="M1200 317 c-16 -8 -26 -23 -28 -40 -3 -23 0 -27 21 -27 14 0 28 7 31 16 13 34 26 -1 26 -72 0 -72 1 -74 25 -74 25 0 25 1 25 89 0 59 -4 92 -13 99 -22 18 -61 23 -87 9z"/>
 <path d="M1363 320 c-45 -18 -57 -89 -23 -133 17 -22 27 -25 85 -25 l65 -1 0 80 0 79 -39 0 c-22 0 -45 2 -53 4 -7 3 -23 1 -35 -4z m51 -46 c21 -8 21 -53 0 -61 -24 -9 -46 24 -33 48 11 21 11 21 33 13z"/>
 <path d="M920 301 c-5 -11 -10 -38 -10 -60 0 -23 -4 -41 -10 -41 -5 0 -10 -7 -10 -15 0 -8 5 -15 10 -15 6 0 10 -9 10 -20 0 -13 7 -20 20 -20 13 0 20 7 20 20 0 11 7 20 15 20 8 0 15 7 15 15 0 8 -7 15 -15 15 -11 0 -15 12 -15 45 0 38 3 45 20 45 11 0 20 7 20 15 0 23 -57 20 -70 -4z"/>
 <path d="M1010 215 c0 -87 3 -105 15 -105 11 0 15 11 15 35 0 32 2 35 19 25 55 -29 91 7 91 90 0 47 -3 60 -15 60 -11 0 -15 -12 -15 -49 0 -32 -6 -55 -16 -65 -18 -19 -20 -19 -45 -6 -15 9 -19 22 -19 65 0 42 -3 55 -15 55 -12 0 -15 -18 -15 -105z"/>
 <path d="M1510 240 l0 -79 55 1 c53 1 55 3 55 29 0 21 -5 28 -22 31 -20 3 -23 10 -26 51 -3 45 -5 47 -33 47 l-29 0 0 -80z"/>
 </g>
<g id="layer102" fill="#0098c8" stroke="none">
 <path d="M35 398 c-9 -28 -35 -182 -35 -212 0 -17 7 -42 16 -54 13 -19 17 -20 29 -8 8 8 46 19 85 26 78 13 186 1 227 -25 20 -13 22 -12 38 21 16 35 14 60 -21 237 l-6 27 -164 0 c-123 0 -166 -3 -169 -12z"/>
 <path d="M555 316 c-61 -27 -75 -118 -26 -167 46 -45 123 -36 152 18 49 91 -35 190 -126 149z m87 -43 c24 -22 24 -77 -2 -103 -25 -25 -51 -25 -81 -1 -26 21 -32 79 -10 105 17 21 69 20 93 -1z"/>
 <path d="M754 320 c-43 -17 -54 -89 -21 -134 13 -18 21 -19 105 -16 l32 1 0 75 c0 70 -1 74 -22 72 -13 0 -34 2 -48 5 -14 3 -34 2 -46 -3z m64 -36 c12 -8 22 -26 22 -39 0 -21 -32 -55 -52 -55 -15 0 -38 33 -38 55 0 22 23 55 38 55 4 0 18 -7 30 -16z"/>
 <path d="M1200 317 c-16 -8 -26 -23 -28 -40 -3 -23 0 -27 21 -27 14 0 28 7 31 16 13 34 26 -1 26 -72 0 -72 1 -74 25 -74 25 0 25 1 25 89 0 59 -4 92 -13 99 -22 18 -61 23 -87 9z"/>
 <path d="M1363 320 c-45 -18 -57 -89 -23 -133 17 -22 27 -25 85 -25 l65 -1 0 80 0 79 -39 0 c-22 0 -45 2 -53 4 -7 3 -23 1 -35 -4z m51 -46 c21 -8 21 -53 0 -61 -24 -9 -46 24 -33 48 11 21 11 21 33 13z"/>
 <path d="M920 301 c-5 -11 -10 -38 -10 -60 0 -23 -4 -41 -10 -41 -5 0 -10 -7 -10 -15 0 -8 5 -15 10 -15 6 0 10 -9 10 -20 0 -13 7 -20 20 -20 13 0 20 7 20 20 0 11 7 20 15 20 8 0 15 7 15 15 0 8 -7 15 -15 15 -11 0 -15 12 -15 45 0 38 3 45 20 45 11 0 20 7 20 15 0 23 -57 20 -70 -4z"/>
 <path d="M1010 215 c0 -87 3 -105 15 -105 11 0 15 11 15 35 0 32 2 35 19 25 55 -29 91 7 91 90 0 47 -3 60 -15 60 -11 0 -15 -12 -15 -49 0 -32 -6 -55 -16 -65 -18 -19 -20 -19 -45 -6 -15 9 -19 22 -19 65 0 42 -3 55 -15 55 -12 0 -15 -18 -15 -105z"/>
 <path d="M1510 240 l0 -79 55 1 c53 1 55 3 55 29 0 21 -5 28 -22 31 -20 3 -23 10 -26 51 -3 45 -5 47 -33 47 l-29 0 0 -80z"/>
 <path d="M113 90 c-48 -10 -83 -27 -83 -40 0 -31 134 -52 245 -39 117 15 126 58 16 79 -62 11 -118 11 -178 0z"/>
 </g>
<g id="layer103" fill="#eb5438" stroke="none">
 <path d="M35 398 c-9 -28 -35 -182 -35 -212 0 -17 7 -42 16 -54 13 -19 17 -20 29 -8 8 8 46 19 85 26 78 13 186 1 227 -25 20 -13 22 -12 38 21 16 35 14 60 -21 237 l-6 27 -164 0 c-123 0 -166 -3 -169 -12z"/>
 <path d="M555 316 c-61 -27 -75 -118 -26 -167 46 -45 123 -36 152 18 49 91 -35 190 -126 149z m87 -43 c24 -22 24 -77 -2 -103 -25 -25 -51 -25 -81 -1 -26 21 -32 79 -10 105 17 21 69 20 93 -1z"/>
 <path d="M754 320 c-43 -17 -54 -89 -21 -134 13 -18 21 -19 105 -16 l32 1 0 75 c0 70 -1 74 -22 72 -13 0 -34 2 -48 5 -14 3 -34 2 -46 -3z m64 -36 c12 -8 22 -26 22 -39 0 -21 -32 -55 -52 -55 -15 0 -38 33 -38 55 0 22 23 55 38 55 4 0 18 -7 30 -16z"/>
 <path d="M1200 317 c-16 -8 -26 -23 -28 -40 -3 -23 0 -27 21 -27 14 0 28 7 31 16 13 34 26 -1 26 -72 0 -72 1 -74 25 -74 25 0 25 1 25 89 0 59 -4 92 -13 99 -22 18 -61 23 -87 9z"/>
 <path d="M1363 320 c-45 -18 -57 -89 -23 -133 17 -22 27 -25 85 -25 l65 -1 0 80 0 79 -39 0 c-22 0 -45 2 -53 4 -7 3 -23 1 -35 -4z m51 -46 c21 -8 21 -53 0 -61 -24 -9 -46 24 -33 48 11 21 11 21 33 13z"/>
 <path d="M920 301 c-5 -11 -10 -38 -10 -60 0 -23 -4 -41 -10 -41 -5 0 -10 -7 -10 -15 0 -8 5 -15 10 -15 6 0 10 -9 10 -20 0 -13 7 -20 20 -20 13 0 20 7 20 20 0 11 7 20 15 20 8 0 15 7 15 15 0 8 -7 15 -15 15 -11 0 -15 12 -15 45 0 38 3 45 20 45 11 0 20 7 20 15 0 23 -57 20 -70 -4z"/>
 <path d="M1010 215 c0 -87 3 -105 15 -105 11 0 15 11 15 35 0 32 2 35 19 25 55 -29 91 7 91 90 0 47 -3 60 -15 60 -11 0 -15 -12 -15 -49 0 -32 -6 -55 -16 -65 -18 -19 -20 -19 -45 -6 -15 9 -19 22 -19 65 0 42 -3 55 -15 55 -12 0 -15 -18 -15 -105z"/>
 <path d="M1510 240 l0 -79 55 1 c53 1 55 3 55 29 0 21 -5 28 -22 31 -20 3 -23 10 -26 51 -3 45 -5 47 -33 47 l-29 0 0 -80z"/>
 </g>
<g id="layer104" fill="#fdcb37" stroke="none">
 <path d="M35 398 c-9 -28 -35 -182 -35 -212 0 -17 7 -42 16 -54 13 -19 17 -20 29 -8 8 8 46 19 85 26 78 13 186 1 227 -25 20 -13 22 -12 38 21 16 35 14 60 -21 237 l-6 27 -164 0 c-123 0 -166 -3 -169 -12z m223 -104 c31 -39 41 -60 37 -74 -8 -24 -52 -37 -76 -22 -12 8 -20 8 -24 2 -12 -20 -55 -11 -67 15 -10 22 -6 30 32 80 23 30 45 55 49 54 3 0 25 -25 49 -55z"/>
 </g>
<g id="layer105" fill="#ffe59a" stroke="none">
 <path d="M56 377 c-35 -169 -33 -257 7 -241 13 5 14 10 6 26 -10 19 -1 129 17 204 4 14 0 23 -10 27 -11 4 -17 -1 -20 -16z"/>
 </g>

</svg>